<svg width="110" height="31" viewBox="0 0 110 31" fill="none" xmlns="http://www.w3.org/2000/svg">
<g clip-path="url(#clip0_336_481)">
<path d="M110 2.20868H30.4297V3.9685H110V2.20868Z" fill="#41454C"/>
<path d="M65.0487 0H47.9712V6.708H54.0303V9.62026L56.5108 12.9511L58.9913 9.62026V6.708H65.0487V0Z" fill="#41454C"/>
<path d="M43.3564 15.1402H35.8104V18.4693H43.2061V23.5225H35.8104V30.5298H30.4333V10.0852H43.3601L43.3564 15.1402Z" fill="#289ED9"/>
<path d="M80.872 30.5298L77.2053 23.9287H75.2803V30.5298H69.8995V10.0852H78.3163C80.4613 10.0852 82.2598 10.7519 83.7118 12.0855C85.1638 13.419 85.8904 15.1082 85.8917 17.153C85.9022 18.3429 85.5687 19.5118 84.9292 20.5266C84.2915 21.5464 83.391 22.3869 82.3167 22.965L86.6433 30.5298H80.872ZM75.2803 14.9051V19.4899H78.2558C78.5562 19.5095 78.8574 19.4648 79.1381 19.3589C79.4187 19.253 79.6721 19.0886 79.8802 18.8772C80.0928 18.6535 80.258 18.3913 80.3662 18.1055C80.4744 17.8197 80.5236 17.516 80.5108 17.2118C80.5236 16.9075 80.4744 16.6038 80.3662 16.318C80.258 16.0322 80.0928 15.77 79.8802 15.5463C79.671 15.3346 79.4182 15.1681 79.1383 15.0576C78.8584 14.9471 78.5577 14.8951 78.2558 14.9051H75.2803Z" fill="#289ED9"/>
<path d="M110 10.0852V30.5298H104.649V19.5202L99.5391 27.7262H98.9891L93.9089 19.5487V30.5298H88.5372V10.0852H93.9181L99.2677 18.8131L104.649 10.0852H110Z" fill="#289ED9"/>
<path d="M64.2894 12.9849H56.5105V13.7829H48.002C46.6881 15.376 45.876 17.304 45.6633 19.3349C45.4507 21.3659 45.8467 23.4133 46.8035 25.2308C47.7604 27.0482 49.2374 28.5583 51.0569 29.5794C52.8764 30.6005 54.9608 31.089 57.0593 30.9862C59.1578 30.8834 61.1811 30.1936 62.8856 28.9999C64.5901 27.8062 65.9033 26.1593 66.6671 24.2576C67.431 22.3558 67.6129 20.2801 67.1911 18.2802C66.7692 16.2803 65.7616 14.4415 64.2894 12.9849Z" fill="url(#paint0_linear_336_481)"/>
<path d="M22.8598 16.2678C24.0613 17.6749 24.6614 19.37 24.6602 21.3531C24.6647 23.0282 24.1685 24.6686 23.232 26.075C22.2811 27.5368 20.8144 28.7243 18.832 29.6374C16.8496 30.5506 14.3788 31.0024 11.4198 30.9929C9.3679 30.9936 7.32181 30.7804 5.31667 30.357C3.45694 29.9896 1.66467 29.3526 0 28.4672L3.311 21.4724C4.50861 22.1491 5.79596 22.6633 7.13717 23.0007C8.4261 23.3393 9.75465 23.5147 11.0898 23.5226C12.2192 23.5226 13.1291 23.335 13.8197 22.9597C14.5102 22.5845 14.8549 22.0501 14.8537 21.3566C14.8512 20.0623 13.7066 19.4151 11.4198 19.4151H7.56983V13.5942L11.8323 9.37273H1.48867V2.21765H23.0872V8.04574L17.71 13.3591C19.943 13.8922 21.6596 14.8618 22.8598 16.2678Z" fill="#41454C"/>
</g>
<defs>
<linearGradient id="paint0_linear_336_481" x1="48.8472" y1="12.9636" x2="63.7763" y2="28.3297" gradientUnits="userSpaceOnUse">
<stop stop-color="#E94381"/>
<stop offset="0.3" stop-color="#8978B6"/>
<stop offset="0.52" stop-color="#2DAEE5"/>
<stop offset="0.75" stop-color="#45BDD4"/>
<stop offset="1" stop-color="#79C3A8"/>
</linearGradient>
<clipPath id="clip0_336_481">
<rect width="110" height="31" fill="white"/>
</clipPath>
</defs>
</svg>
