<svg width="48" height="48" viewBox="0 0 48 48" fill="none" xmlns="http://www.w3.org/2000/svg">
<g clip-path="url(#clip0_245_2904)">
<path d="M23.9999 40C28.2433 40 32.313 38.3143 35.3136 35.3137C38.3142 32.3131 39.9999 28.2435 39.9999 24C39.9999 19.7565 38.3142 15.6869 35.3136 12.6863C32.313 9.68571 28.2433 8 23.9999 8C19.7564 8 15.6868 9.68571 12.6862 12.6863C9.68559 15.6869 7.99988 19.7565 7.99988 24C7.99988 28.2435 9.68559 32.3131 12.6862 35.3137C15.6868 38.3143 19.7564 40 23.9999 40ZM23.9999 44C12.9539 44 3.99988 35.046 3.99988 24C3.99988 12.954 12.9539 4 23.9999 4C35.0459 4 43.9999 12.954 43.9999 24C43.9999 35.046 35.0459 44 23.9999 44ZM23.9999 32C26.1216 32 28.1564 31.1571 29.6567 29.6569C31.157 28.1566 31.9999 26.1217 31.9999 24C31.9999 21.8783 31.157 19.8434 29.6567 18.3431C28.1564 16.8429 26.1216 16 23.9999 16C21.8781 16 19.8433 16.8429 18.343 18.3431C16.8427 19.8434 15.9999 21.8783 15.9999 24C15.9999 26.1217 16.8427 28.1566 18.343 29.6569C19.8433 31.1571 21.8781 32 23.9999 32ZM23.9999 36C20.8173 36 17.765 34.7357 15.5146 32.4853C13.2642 30.2348 11.9999 27.1826 11.9999 24C11.9999 20.8174 13.2642 17.7652 15.5146 15.5147C17.765 13.2643 20.8173 12 23.9999 12C27.1825 12 30.2347 13.2643 32.4852 15.5147C34.7356 17.7652 35.9999 20.8174 35.9999 24C35.9999 27.1826 34.7356 30.2348 32.4852 32.4853C30.2347 34.7357 27.1825 36 23.9999 36ZM23.9999 28C22.939 28 21.9216 27.5786 21.1715 26.8284C20.4213 26.0783 19.9999 25.0609 19.9999 24C19.9999 22.9391 20.4213 21.9217 21.1715 21.1716C21.9216 20.4214 22.939 20 23.9999 20C25.0607 20 26.0782 20.4214 26.8283 21.1716C27.5785 21.9217 27.9999 22.9391 27.9999 24C27.9999 25.0609 27.5785 26.0783 26.8283 26.8284C26.0782 27.5786 25.0607 28 23.9999 28Z" fill="#2F80ED"/>
</g>
<defs>
<clipPath id="clip0_245_2904">
<rect width="48" height="48" fill="white"/>
</clipPath>
</defs>
</svg>
