<svg width="32" height="32" viewBox="0 0 32 32" fill="none" xmlns="http://www.w3.org/2000/svg">
<g clip-path="url(#clip0_55_41)">
<path d="M26.7775 20.2667L28.3801 21.228C28.479 21.2872 28.5608 21.371 28.6177 21.4713C28.6745 21.5715 28.7044 21.6848 28.7044 21.8C28.7044 21.9152 28.6745 22.0285 28.6177 22.1288C28.5608 22.229 28.479 22.3128 28.3801 22.372L16.6868 29.388C16.4794 29.5126 16.2421 29.5784 16.0001 29.5784C15.7582 29.5784 15.5208 29.5126 15.3135 29.388L3.62013 22.372C3.52126 22.3128 3.43942 22.229 3.38259 22.1288C3.32577 22.0285 3.2959 21.9152 3.2959 21.8C3.2959 21.6848 3.32577 21.5715 3.38259 21.4713C3.43942 21.371 3.52126 21.2872 3.62013 21.228L5.2228 20.2667L16.0001 26.7333L26.7775 20.2667ZM26.7775 14L28.3801 14.9613C28.479 15.0205 28.5608 15.1043 28.6177 15.2046C28.6745 15.3048 28.7044 15.4181 28.7044 15.5333C28.7044 15.6486 28.6745 15.7618 28.6177 15.8621C28.5608 15.9623 28.479 16.0462 28.3801 16.1053L16.0001 23.5333L3.62013 16.1053C3.52126 16.0462 3.43942 15.9623 3.38259 15.8621C3.32577 15.7618 3.2959 15.6486 3.2959 15.5333C3.2959 15.4181 3.32577 15.3048 3.38259 15.2046C3.43942 15.1043 3.52126 15.0205 3.62013 14.9613L5.2228 14L16.0001 20.4667L26.7775 14ZM16.6855 1.74534L28.3801 8.76134C28.479 8.82053 28.5608 8.90434 28.6177 9.00459C28.6745 9.10484 28.7044 9.21811 28.7044 9.33334C28.7044 9.44858 28.6745 9.56185 28.6177 9.6621C28.5608 9.76235 28.479 9.84615 28.3801 9.90534L16.0001 17.3333L3.62013 9.90534C3.52126 9.84615 3.43942 9.76235 3.38259 9.6621C3.32577 9.56185 3.2959 9.44858 3.2959 9.33334C3.2959 9.21811 3.32577 9.10484 3.38259 9.00459C3.43942 8.90434 3.52126 8.82053 3.62013 8.76134L15.3135 1.74534C15.5208 1.62075 15.7582 1.55493 16.0001 1.55493C16.2421 1.55493 16.4794 1.62075 16.6868 1.74534H16.6855ZM16.0001 4.44268L7.84947 9.33334L16.0001 14.224L24.1508 9.33334L16.0001 4.44268Z" fill="#2F80ED"/>
</g>
<defs>
<clipPath id="clip0_55_41">
<rect width="32" height="32" fill="white"/>
</clipPath>
</defs>
</svg>
