<svg width="16" height="16" viewBox="0 0 16 16" fill="none" xmlns="http://www.w3.org/2000/svg">
<g clip-path="url(#clip0_81_1394)">
<path d="M2.66667 1.33334H13.3333C13.5101 1.33334 13.6797 1.40358 13.8047 1.52861C13.9298 1.65363 14 1.8232 14 2.00001V14C14 14.1768 13.9298 14.3464 13.8047 14.4714C13.6797 14.5964 13.5101 14.6667 13.3333 14.6667H2.66667C2.48986 14.6667 2.32029 14.5964 2.19526 14.4714C2.07024 14.3464 2 14.1768 2 14V2.00001C2 1.8232 2.07024 1.65363 2.19526 1.52861C2.32029 1.40358 2.48986 1.33334 2.66667 1.33334ZM3.33333 2.66668V13.3333H12.6667V2.66668H3.33333ZM4.66667 4.00001H11.3333V6.66668H4.66667V4.00001ZM4.66667 8.00001H6V9.33334H4.66667V8.00001ZM4.66667 10.6667H6V12H4.66667V10.6667ZM7.33333 8.00001H8.66667V9.33334H7.33333V8.00001ZM7.33333 10.6667H8.66667V12H7.33333V10.6667ZM10 8.00001H11.3333V12H10V8.00001Z" fill="white"/>
</g>
<defs>
<clipPath id="clip0_81_1394">
<rect width="16" height="16" fill="white"/>
</clipPath>
</defs>
</svg>
