<svg width="32" height="32" viewBox="0 0 32 32" fill="none" xmlns="http://www.w3.org/2000/svg">
<g clip-path="url(#clip0_55_68)">
<path d="M6.66667 10.6667V26.6667H12V10.6667H6.66667ZM4 9.33332L9.33333 2.66666L14.6667 9.33332V29.3333H4V9.33332ZM25.3333 21.3333V18.6667H21.3333V16H25.3333V13.3333H22.6667V10.6667H25.3333V7.99999H20V26.6667H25.3333V24H22.6667V21.3333H25.3333ZM18.6667 5.33332H26.6667C27.0203 5.33332 27.3594 5.4738 27.6095 5.72385C27.8595 5.9739 28 6.31303 28 6.66666V28C28 28.3536 27.8595 28.6928 27.6095 28.9428C27.3594 29.1929 27.0203 29.3333 26.6667 29.3333H18.6667C18.313 29.3333 17.9739 29.1929 17.7239 28.9428C17.4738 28.6928 17.3333 28.3536 17.3333 28V6.66666C17.3333 6.31303 17.4738 5.9739 17.7239 5.72385C17.9739 5.4738 18.313 5.33332 18.6667 5.33332Z" fill="#1E88E5"/>
</g>
<defs>
<clipPath id="clip0_55_68">
<rect width="32" height="32" fill="white"/>
</clipPath>
</defs>
</svg>
