<svg width="32" height="32" viewBox="0 0 32 32" fill="none" xmlns="http://www.w3.org/2000/svg">
<g clip-path="url(#clip0_55_47)">
<path d="M8.00033 25.3333H4.00033C3.6467 25.3333 3.30756 25.1928 3.05752 24.9428C2.80747 24.6928 2.66699 24.3536 2.66699 24V10.6667C2.66699 10.313 2.80747 9.9739 3.05752 9.72385C3.30756 9.4738 3.6467 9.33332 4.00033 9.33332H8.00033V3.99999C8.00033 3.64637 8.1408 3.30723 8.39085 3.05718C8.6409 2.80713 8.98004 2.66666 9.33366 2.66666H22.667C23.0206 2.66666 23.3598 2.80713 23.6098 3.05718C23.8599 3.30723 24.0003 3.64637 24.0003 3.99999V9.33332H28.0003C28.3539 9.33332 28.6931 9.4738 28.9431 9.72385C29.1932 9.9739 29.3337 10.313 29.3337 10.6667V24C29.3337 24.3536 29.1932 24.6928 28.9431 24.9428C28.6931 25.1928 28.3539 25.3333 28.0003 25.3333H24.0003V28C24.0003 28.3536 23.8599 28.6928 23.6098 28.9428C23.3598 29.1929 23.0206 29.3333 22.667 29.3333H9.33366C8.98004 29.3333 8.6409 29.1929 8.39085 28.9428C8.1408 28.6928 8.00033 28.3536 8.00033 28V25.3333ZM8.00033 22.6667V21.3333C8.00033 20.9797 8.1408 20.6406 8.39085 20.3905C8.6409 20.1405 8.98004 20 9.33366 20H22.667C23.0206 20 23.3598 20.1405 23.6098 20.3905C23.8599 20.6406 24.0003 20.9797 24.0003 21.3333V22.6667H26.667V12H5.33366V22.6667H8.00033ZM10.667 5.33332V9.33332H21.3337V5.33332H10.667ZM10.667 22.6667V26.6667H21.3337V22.6667H10.667ZM6.66699 13.3333H10.667V16H6.66699V13.3333Z" fill="#2F80ED"/>
</g>
<defs>
<clipPath id="clip0_55_47">
<rect width="32" height="32" fill="white"/>
</clipPath>
</defs>
</svg>
